<?xml version="1.0" encoding="utf-8"?>
<!-- Generator: Adobe Illustrator 26.3.1, SVG Export Plug-In . SVG Version: 6.00 Build 0)  -->
<svg version="1.1" id="레이어_1" xmlns="http://www.w3.org/2000/svg" xmlns:xlink="http://www.w3.org/1999/xlink" x="0px"
	 y="0px" viewBox="0 0 600 120" style="enable-background:new 0 0 600 120;" xml:space="preserve">
<style type="text/css">
	.st0{fill:#231F20;}
</style>
<symbol  id="현란한_벡터_팩_15" viewBox="-91.08 -90.14 182.16 180.29">
	<path class="st0" d="M-90.27-89.64c10.48-0.74,64.4-3.35,97.28,18.04c17.77,11.56,32.2,25.83,42.88,42.41
		c9.96,15.45,16.26,32.6,18.24,49.6c0.6,5.12,2.55,8.85,5.34,10.23c1.41,0.7,2.87,0.68,4.12-0.06c0.5-0.3,0.96-0.71,1.35-1.21
		c1.29-1.67,0.51-3.02-0.07-3.67c-1.03-1.16-3.04-1.87-4.4-1.06c-0.39,0.23-0.71,0.58-0.95,1.04c-0.06,0.12-0.15,0.21-0.26,0.27
		c-0.15,0.09-0.33,0.12-0.51,0.07c-0.31-0.08-0.52-0.35-0.52-0.67c0-0.13,0.07-3.1,2.85-4.74c1.79-1.06,4.28-1.29,7.39-0.7
		c4.35,0.83,7.58,4.32,8.41,9.12c1,5.74-1.75,11.45-7,14.55c-8.87,5.24-15.07-0.01-17.04-2.11c-0.6,0.98-1.74,2.54-3.33,3.48
		c-1.44,0.85-2.94,1.03-4.46,0.53c-1.97-0.65-3.69-0.63-4.83,0.05c-0.89,0.53-1.37,1.44-1.32,2.52c0.01,0.24-0.11,0.47-0.31,0.6
		l0.01,0.19l-0.15-0.12c-0.22,0.08-0.48,0.05-0.67-0.11c-0.17-0.14-4.11-3.45-4.42-7.88c-0.1-1.45,0.2-2.84,0.89-4.16
		c-2.12,0.87-5.49,1.99-9.44,2.3c-6.17,0.49-14.92-0.98-21.6-10.75c-4.77-6.96-4.94-12.13-4.26-15.23c0.68-3.08,2.53-5.64,5.19-7.22
		c1.98-1.17,4.22-1.67,6.29-1.41c2.22,0.28,4.02,1.43,5.08,3.22c0.01,0.02,0.03,0.05,0.04,0.07c1.68,3.83-0.65,6.48-2.11,7.34
		c-0.2,0.12-0.45,0.13-0.66,0.02c-0.21-0.11-0.35-0.32-0.36-0.55c-0.03-0.35-0.36-3.4-3.26-3.21c-0.62,0.04-1.16,0.2-1.62,0.47
		c-0.98,0.58-1.59,1.73-1.7,3.23c-0.19,2.55,1.04,6.28,4.22,8.89c3.53,2.89,9.7,2.86,14.66-0.07c7.01-4.15,10.07-12.89,8.38-23.98
		c-2.26-13.07-4.72-19.61-6.25-22.68c-0.04,2.38-0.87,5.59-4.49,7.72c-7.33,4.33-13-4.83-13.05-4.92c-0.13-0.21-0.12-0.46-0.01-0.67
		l-0.26-0.43l0.46,0.2c0.02-0.01,0.03-0.03,0.05-0.04c0.18-0.11,0.42-0.13,0.62-0.04c0.03,0.01,3.29,1.41,5.78-0.06
		c0.83-0.49,1.41-1.37,1.66-2.52c0.44-2,0.25-6.69-5.91-15.59C14.88-54.97-16.76-90.5-79.08-87.7c10.41,2.25,26.2,7.5,45.09,20.6
		c3.38,2.35,6.53,5,9.43,7.91c0.64-1.32,1.76-3.18,3.7-5.63c0.59-0.75,1.31-1.36,2.11-1.83c4.28-2.51,10.81-1.23,13.5,3.27
		c0.48,0.81,0.83,1.73,1.01,2.75c0.74,4.01-0.89,6.69-3.11,7.99c-1.97,1.16-4.39,1.3-6.08,0.49l-0.51-0.25l0.46-0.34
		c0,0,0.64-0.47,1.14-1.2c0.5-0.74,0.83-1.64,0.34-2.6c-0.03-0.06-0.06-0.12-0.1-0.18c-1.01-1.7-3.39-2.05-4.84-1.2
		c-0.84,0.51-1.37,1.35-1.18,2.67c0.17,1.15,0.6,2.33,1.24,3.42c1.45,2.44,3.93,4.35,6.87,4.34l0.84,0l-0.6,0.59
		c-0.01,0.01-0.2,0.19-0.55,0.39c-0.65,0.39-1.9,0.87-3.72,0.68c2.91,4.78,5.27,9.92,6.98,15.3C-3.11-18.11-2.95-5.38-6.64,2.69
		c-9.25,18.45-2.59,38.46,2.2,48.75C2.77,66.91,13.49,77.7,19.7,79.18c1.63,0.44,2.92,0.38,3.87-0.18c1.13-0.67,1.75-2.09,1.68-3.81
		c-0.08-1.65-0.79-3.12-1.74-3.57c-1.13-0.53-2.07-0.58-2.81-0.15c-1.1,0.65-1.47,2.17-1.48,2.19c-0.04,0.19-0.16,0.34-0.32,0.43
		c-0.1,0.06-0.22,0.09-0.34,0.09c-0.31,0-0.59-0.21-0.67-0.51c-0.81-3.17,0.34-5.94,3.14-7.6c2.76-1.63,6.55-1.81,8.8-0.4
		c2.83,1.76,3.59,4.68,3.8,6.34c1.88-0.86,5.2-0.84,8.34,0.86c1.99,1.08,4.21,0.23,5.73-0.66c1.14-0.68,1.87-1.37,2-1.5
		c0.13-0.13,0.29-0.25,0.48-0.36c1.06-0.62,2.83-0.79,3.78-0.04c0.37,0.3,0.94,0.98,0.54,2.28c-0.01,0.02-0.01,0.03-0.02,0.05
		c-2.72,6.94-6.54,11.9-11.37,14.75c-7.16,4.23-16.41,3.57-26.06-1.85c-9.18-5.17-18.06-14.19-25-25.41
		c-9.41-15.22-11.94-28.51-12.41-36.97c-0.3-5.44,0.18-9.59,0.63-12.13c-1.08,1.1-2.33,2.07-3.73,2.89
		c-4.76,2.81-11.24,3.9-17.77,2.97c-6.4-0.91-11.83-3.54-14.91-7.22c-6.94-8.3-7.67-16.94-2.05-24.35c1.37-1.81,1.43-3.6,0.16-5.02
		c-1.51-1.69-4.37-2.36-6-1.39c-0.52,0.31-0.88,0.76-1.07,1.36c-0.42,1.28-0.38,2.4,0.14,3.34c0.97,1.77,3.26,2.37,3.28,2.38
		c0.31,0.08,0.52,0.36,0.51,0.67c-0.01,0.24-0.14,0.45-0.33,0.57c-0.06,0.04-0.13,0.06-0.21,0.08c-4.64,0.97-7.54-1.89-8.7-4.89
		c-1.44-3.7-0.84-8.9,3.1-11.22l0.07-0.04c5.81-3.34,12.38-1.78,15.62,3.71c2.34,3.97,1.35,7.98,0.6,9.93
		c2.25-0.22,6.76-0.01,8.45,4.73c1.1,3.1,0.05,5.8-2.96,7.58c-1.24,0.73-2.36,1.04-2.41,1.05c-0.24,0.06-0.48-0.01-0.65-0.18
		l-0.68,0.18l0.5-0.5c-0.06-0.23,0-0.48,0.18-0.65c0.82-0.81,1.01-1.77,0.49-2.45c-0.58-0.75-2-1.02-3.87,0.08
		c-0.82,0.49-1.19,1.28-1.08,2.37c0.31,3.13,4.33,7.79,9.83,9.74c4.56,1.61,9.88,1.03,14.24-1.54c2.6-1.54,4.69-3.7,6.02-6.25
		c3.61-6.88-0.55-11.17-0.73-11.34c-0.17-0.17-0.23-0.42-0.17-0.65L-24-13.17l0.2-0.01c0.06-0.11,0.14-0.21,0.25-0.27
		c0.09-0.06,0.2-0.09,0.32-0.09c0.25-0.01,0.79-0.18,1.52-0.62c2.59-1.53,5.9-5.26,6.69-10.72c0.82-5.68-0.79-15.24-13.17-28.55
		c-13.08-14.06-29.32-22.74-40.65-27.54c-12.29-5.21-21.6-7.11-21.69-7.12c-0.36-0.07-0.59-0.41-0.54-0.77
		c0.03-0.18,0.13-0.32,0.26-0.42c0.06-0.11,0.13-0.2,0.24-0.26C-90.48-89.6-90.38-89.63-90.27-89.64z"/>
</symbol>
<g>
	<defs>
		<path id="SVGID_1_" d="M274.67,43.35c3.19,1.59,28.41,13.63,28.41,13.63l64.62,19.38l17.32,1.31l10.53-10.19l29.33-15.98
			l18.75-37.38l34.54-23.51l62.93,12l16.22,47.08l-63.49,64.68l-88.78,13.64l-82.55-34.88L274.67,43.35z"/>
	</defs>
	<clipPath id="SVGID_00000169516513318670435680000010520668454909693348_">
		<use xlink:href="#SVGID_1_"  style="overflow:visible;"/>
	</clipPath>
	
		<g transform="matrix(1 0 5.960464e-08 1 0 1.144409e-05)" style="clip-path:url(#SVGID_00000169516513318670435680000010520668454909693348_);">
		
			<use xlink:href="#현란한_벡터_팩_15"  width="182.16" height="180.29" x="-91.08" y="-90.14" transform="matrix(1.0243 0.5692 0.6023 -0.8329 429.5311 25.4722)" style="overflow:visible;"/>
	</g>
</g>
<g>
	<defs>
		<path id="SVGID_00000135691785034360679740000004834174655801922222_" d="M311.99,62.67c0,0,1.68,1.78,3.87,4.3L288,55.21
			l-26.66,106.73l-141.84-48.38L29.51,72.6l32.37-45.91l52.92,32.71l44.12-8.52l36.28-26.28l35.47-3.73l14.97-5.25l15.56,7.25
			L311.99,62.67z"/>
	</defs>
	<clipPath id="SVGID_00000057830938382543011550000009330355514456326032_">
		<use xlink:href="#SVGID_00000135691785034360679740000004834174655801922222_"  style="overflow:visible;"/>
	</clipPath>
	
		<g transform="matrix(1 -2.980232e-08 0 1 0 3.814697e-06)" style="clip-path:url(#SVGID_00000057830938382543011550000009330355514456326032_);">
		
			<use xlink:href="#현란한_벡터_팩_15"  width="182.16" height="180.29" x="-91.08" y="-90.14" transform="matrix(-0.6741 -0.8613 -0.9811 0.5205 179.9705 47.2208)" style="overflow:visible;"/>
	</g>
</g>
</svg>
