<?xml version="1.0" encoding="utf-8"?>
<!-- Generator: Adobe Illustrator 26.3.1, SVG Export Plug-In . SVG Version: 6.00 Build 0)  -->
<svg version="1.1" id="레이어_1" xmlns="http://www.w3.org/2000/svg" xmlns:xlink="http://www.w3.org/1999/xlink" x="0px"
	 y="0px" viewBox="0 0 548.66 76.96" style="enable-background:new 0 0 548.66 76.96;" xml:space="preserve">
<style type="text/css">
	.st0{clip-path:url(#SVGID_00000106847965783221355840000007802451156207841962_);}
	.st1{fill:#231F20;}
	.st2{clip-path:url(#SVGID_00000070112677177086653270000009425285353852553635_);}
	.st3{clip-path:url(#SVGID_00000047749538993046783630000008973450244171808700_);}
	.st4{clip-path:url(#SVGID_00000008868063005094068360000006154083504198437029_);}
</style>
<g id="현란한_벡터_팩_04">
	<path class="st1" d="M228.74,34.38L228.74,34.38l-0.3-0.54c-1.75-3.18-2-6.2-2.47-6.23c-0.53-0.11-1.13,3.43,0.87,7.09
		c0.12,0.21,0.22,0.41,0.35,0.61v0c3.38,5.03,9.02,7.46,14.42,8.61C236.33,42.21,231.21,39.15,228.74,34.38z M230.48,55.94
		c1.23-1.13,2.46-2.27,3.68-3.42c2.43-2.31,4.82-4.65,7.13-7.07c-2.42,2.31-4.91,4.54-7.44,6.73c-1.27,1.09-2.54,2.18-3.82,3.25
		 M232.01,19.3c-0.45-0.24-2.33,3.44-1.82,8.33c0.03,0.28,0.06,0.55,0.11,0.82h0c0.21,1.13,0.54,2.22,0.95,3.28
		c0.46,0.01,1,0.02,1.58,0.03c-0.39-1.15-0.64-2.35-0.74-3.58h0c-0.04-0.25-0.06-0.5-0.09-0.75
		C231.54,23.05,232.48,19.46,232.01,19.3z M238.98,11.12c0.94,0.21,1.92,0.48,2.94,0.84c-0.01,0.06,2.29-0.34,7.9,0.54
		c2.77,0.5,6.44,1.34,10.56,3.64c4.05,2.26,8.6,6.48,10.65,13.21l0,0.01l0,0l0,0.01l0-0.01l0,0.01l-0.01-0.03
		c-1.91-6.75-6.24-11.24-10.23-13.88c-4.05-2.68-7.71-3.98-10.5-4.91c-5.65-1.73-8.04-2.1-8.02-2.15c-2.15,0.29-4.04,0.46-5.74,0.54
		C237.37,9.61,238.18,10.34,238.98,11.12z M219.88,8.73c-5.9,1.52-6.75,3.29-6.75,3.26l0,0c0.02,0.04,1.47,1.02,7.31,0.84
		c2.93-0.06,5.45-1.06,8.74-1.73c0.84-0.17,1.75-0.31,2.72-0.41c-1.07-0.71-2.21-1.38-3.4-1.98C225.34,8.42,222.67,8.04,219.88,8.73
		z M259.08,25.04c0.71-0.04,1.42-0.1,2.16-0.25c0.37-0.08,0.74-0.16,1.16-0.37c0.21-0.12,0.45-0.23,0.68-0.59
		c0.28-0.39,0.13-1.03-0.07-1.24c-0.76-0.86-1.44-0.96-2.14-1.25c-0.7-0.23-1.4-0.38-2.11-0.51c-3.59-0.57-7.42-0.46-10.92,0.66
		c-3.49-2.06-6.01-5.71-9.03-8.88l0,0c-1.22-1.25-2.55-2.45-4-3.53c-6.35-4.66-13.69-6.54-20.26-7.42
		c-6.64-0.82-12.8,0.11-17.5,1.99c-4.73,1.85-8.01,4.44-9.99,6.41c-2,1.99-2.76,3.38-2.66,3.44c0.19,0.3,3.84-5.24,13.1-8.64
		c4.57-1.65,10.45-2.41,16.84-1.53c6.32,0.92,13.45,2.84,19.37,7.21c1.37,1.02,2.62,2.14,3.79,3.34l0,0
		c1.92,1.91,3.62,4.09,5.66,6.09c0.83,0.83,1.76,1.59,2.76,2.26c-1.21,0.54-2.37,1.22-3.45,2.06c-2.19,1.83-4.04,4.19-4.65,7.11
		c-0.58,2.98,0.92,5.89,2.86,7.89c1.26,1.35,2.69,2.47,4.21,3.46c0.19-0.21,0.38-0.42,0.56-0.64c-1.5-1.01-2.9-2.13-4.1-3.44
		c-1.82-1.94-3.06-4.53-2.52-7.09c0.54-2.51,2.32-4.77,4.35-6.41c1.22-0.94,2.58-1.65,4.02-2.18c1.07,0.58,2.21,1.04,3.38,1.35
		C253.42,25.1,256.27,25.16,259.08,25.04z M258.53,22.18c1.06,0.19,2.43,0.58,3.09,1.03c-0.19,0.07-0.42,0.13-0.65,0.17
		c-0.62,0.12-1.29,0.17-1.95,0.2c-2.7,0.08-5.45-0.04-7.98-0.76c-0.53-0.13-1.03-0.3-1.52-0.49
		C252.45,21.65,255.59,21.67,258.53,22.18z M264.62,61.05c-1.45-5.42-4.9-10.23-9.45-13.52c-2-1.42-4.22-2.22-6.27-3.34
		c-0.14,0.2-0.29,0.4-0.44,0.6c2.13,1.12,4.3,2.14,6.32,3.3c4.46,3.13,7.92,7.8,9.4,13.09 M275,35.27
		c-0.21-4.71-1.19-9.48-3.27-13.83l0,0c-0.36-0.65-0.68-1.34-1.09-1.98c-3.39-5.73-8.48-9.33-12.34-11.06
		c-3.9-1.77-6.59-1.97-6.64-1.66c-0.08,0.33,2.36,1.11,5.86,3.16c3.47,2.02,7.97,5.53,11.07,10.79c0.38,0.59,0.68,1.22,1.02,1.82
		l0,0c2.09,3.93,3.21,8.36,3.61,12.87c0.3,4.51,0.27,9.22,0.42,13.82l0.64,27.76l0.56-27.76C274.87,44.55,275.11,40.01,275,35.27z
		 M233.43,62.96c0,0,0.08-0.11,0.21-0.29c0.79-1,3.83-4.74,9.7-12.41c1.73-2.28,3.7-4.92,5.89-7.96c2.28-2.99,4.28-6.77,8.16-9.15
		c1.89-1.19,4.29-1.92,6.74-1.44c2.45,0.43,4.77,2.14,6.18,4.57c1.52,2.42,1.85,5.47,1.76,8.6c0.04,3.14,0.08,6.41,0.1,9.83v0.03
		v0.03V54.7c0.03-3.42,0.06-6.7,0.1-9.83c0.17-3.1-0.05-6.28-1.54-8.84c-1.37-2.58-3.75-4.53-6.43-5.14
		c-2.68-0.66-5.4,0.01-7.53,1.18c-4.4,2.37-6.78,6.22-9.23,8.9c-2.42,2.83-4.62,5.23-6.57,7.29 M257.88,55.78
		c-1.48-1.45-3.39-2.53-5.47-2.95c-2.09-0.44-4.3-0.1-6.23,0.66c-1.93,0.76-3.84,1.92-5.12,3.74c-1.31,1.79-1.78,4.22-1.22,6.4l0,0
		c0.18,0.67,0.44,1.33,0.78,1.95c1.49,2.72,4.46,4.23,7.05,4.23c2.63,0.12,4.89-1.06,6.26-2.34c2.76-2.67,3.19-5.08,3.01-5.12
		c-0.26-0.15-1.16,2.01-3.83,4.13c-1.33,1.02-3.2,1.83-5.36,1.65c-2.13-0.1-4.36-1.31-5.55-3.44c-0.27-0.49-0.47-1-0.62-1.52h0
		c-0.49-1.68-0.22-3.55,0.77-5.05c0.98-1.52,2.58-2.62,4.32-3.38c3.46-1.7,7.72-0.98,10.58,1.69c2.89,2.6,4.58,6.43,5.1,10.34
		 M235.26,36.44c-0.4,0.02-0.83,0.04-1.25,0.06c0.32,0.4,0.66,0.8,1.01,1.17c2.35,2.53,5.29,4.36,8.35,5.75
		C240.2,41.71,237.32,39.31,235.26,36.44z M228.59,32.4c0.55,1.28,1.38,2.6,2,3.51c2.73-0.12,5.03-0.25,6.97-0.39
		c-0.43-1.02-0.56-1.99-0.58-2.7c-2.16-0.15-4.75-0.29-7.83-0.41C228.96,32.41,228.77,32.41,228.59,32.4z M239.9,35.33
		c6.08-0.54,7.58-1.13,7.59-1.14h0h0c-0.01,0-1.58-0.62-7.99-1.17C239.44,33.98,239.67,34.78,239.9,35.33z M226.75,36.02
		c-1.03-1.26-1.65-2.78-1.95-3.67c-13.46,0.05-105.41,2.39-131.67,0.31c0,0-23.68,1.29-95.1,1.53h-0.04h-0.04h0.09
		c71.42,0.24,95.1,1.53,95.1,1.53C120.66,33.55,212.52,36.22,226.75,36.02z"/>
	<path class="st1" d="M311.97,43.91c5.4-1.15,11.04-3.58,14.42-8.61l0,0c0.12-0.19,0.23-0.4,0.35-0.61c2-3.66,1.4-7.2,0.87-7.09
		c-0.48,0.03-0.72,3.05-2.47,6.23l-0.3,0.54l0,0C322.37,39.15,317.24,42.21,311.97,43.91z M319.72,52.17
		c-2.53-2.19-5.02-4.42-7.44-6.73c2.31,2.42,4.7,4.77,7.13,7.07 M321.56,27.44c-0.03,0.25-0.05,0.5-0.09,0.75h0
		c-0.1,1.23-0.36,2.42-0.74,3.58c0.58-0.02,1.13-0.03,1.58-0.03c0.42-1.06,0.74-2.15,0.95-3.28l0,0c0.05-0.27,0.07-0.55,0.1-0.82
		c0.51-4.89-1.36-8.57-1.81-8.33C321.09,19.46,322.04,23.05,321.56,27.44z M317.03,8.94c-1.7-0.09-3.59-0.25-5.74-0.54
		c0.02,0.06-2.37,0.42-8.02,2.15c-2.79,0.93-6.46,2.22-10.5,4.91c-3.99,2.65-8.32,7.13-10.23,13.88l-0.01,0.03l0-0.01l0,0.01
		l0.01-0.01v0l0-0.01c2.06-6.73,6.6-10.94,10.65-13.21c4.12-2.3,7.79-3.14,10.56-3.64c5.61-0.87,7.91-0.48,7.9-0.54
		c1.02-0.35,2-0.63,2.94-0.84C315.39,10.34,316.2,9.61,317.03,8.94z M325.08,8.71c-1.2,0.6-2.33,1.26-3.4,1.98
		c0.97,0.1,1.87,0.24,2.72,0.41c3.28,0.67,5.81,1.68,8.74,1.73c5.84,0.18,7.29-0.8,7.31-0.84l0,0c0,0.02-0.85-1.75-6.75-3.26
		C330.9,8.04,328.24,8.42,325.08,8.71z M302.97,24.34c1.18-0.3,2.31-0.77,3.38-1.35c1.44,0.53,2.79,1.25,4.02,2.18
		c2.03,1.63,3.81,3.89,4.35,6.41c0.54,2.56-0.7,5.15-2.52,7.09c-1.2,1.31-2.61,2.43-4.1,3.44c0.19,0.21,0.37,0.42,0.56,0.64
		c1.51-0.99,2.94-2.11,4.21-3.46c1.94-2,3.44-4.9,2.86-7.89c-0.6-2.92-2.46-5.28-4.65-7.11c-1.07-0.84-2.23-1.52-3.45-2.06
		c1-0.66,1.93-1.43,2.76-2.26c2.04-2,3.74-4.17,5.66-6.09l0,0c1.17-1.2,2.43-2.32,3.79-3.34c5.92-4.37,13.05-6.29,19.37-7.21
		c6.39-0.87,12.27-0.12,16.84,1.53c9.27,3.4,12.92,8.94,13.11,8.64c0.1-0.06-0.66-1.45-2.66-3.44c-1.98-1.97-5.26-4.57-9.99-6.41
		c-4.7-1.88-10.85-2.81-17.5-1.99c-6.57,0.87-13.9,2.76-20.25,7.42c-1.45,1.08-2.78,2.28-4,3.53l0,0c-3.02,3.17-5.55,6.82-9.03,8.88
		c-3.5-1.11-7.32-1.22-10.92-0.66c-0.71,0.12-1.41,0.28-2.11,0.51c-0.71,0.29-1.38,0.38-2.15,1.25c-0.2,0.21-0.35,0.85-0.07,1.24
		c0.23,0.35,0.47,0.47,0.69,0.59c0.42,0.2,0.79,0.29,1.16,0.37c0.74,0.15,1.45,0.21,2.16,0.25C297.3,25.16,300.16,25.1,302.97,24.34
		z M304.06,22.32c-0.49,0.19-0.99,0.36-1.52,0.49c-2.53,0.73-5.28,0.84-7.98,0.76c-0.67-0.03-1.34-0.08-1.95-0.2
		c-0.23-0.04-0.47-0.1-0.65-0.17c0.67-0.45,2.03-0.83,3.09-1.03C297.98,21.67,301.12,21.65,304.06,22.32z M289.39,61.17
		c1.48-5.29,4.94-9.95,9.4-13.09c2.01-1.15,4.18-2.17,6.32-3.3c-0.15-0.2-0.29-0.4-0.44-0.6c-2.05,1.11-4.27,1.92-6.27,3.34
		c-4.55,3.29-8,8.1-9.45,13.52 M278.75,49.2l0.56,27.76l0.64-27.76c0.15-4.6,0.11-9.31,0.42-13.82c0.4-4.51,1.52-8.95,3.61-12.87h0
		c0.34-0.6,0.64-1.23,1.02-1.82c3.1-5.25,7.59-8.77,11.07-10.79c3.5-2.05,5.94-2.83,5.86-3.16c-0.05-0.31-2.75-0.11-6.64,1.66
		c-3.85,1.73-8.95,5.32-12.34,11.06c-0.41,0.65-0.73,1.33-1.09,1.98l0,0c-2.08,4.36-3.05,9.12-3.27,13.83
		C278.46,40.01,278.7,44.55,278.75,49.2z M312.58,48.26c-1.95-2.05-4.15-4.46-6.57-7.29c-2.45-2.69-4.83-6.54-9.23-8.9
		c-2.13-1.17-4.85-1.84-7.53-1.18c-2.68,0.61-5.05,2.56-6.43,5.14c-1.49,2.56-1.71,5.74-1.54,8.84c0.04,3.14,0.08,6.41,0.1,9.83
		v0.07v-0.03V54.7c0.03-3.42,0.06-6.7,0.1-9.83c-0.08-3.13,0.24-6.18,1.76-8.6c1.41-2.42,3.73-4.14,6.18-4.57
		c2.46-0.48,4.85,0.25,6.74,1.44c3.89,2.38,5.89,6.16,8.16,9.15c2.2,3.04,4.16,5.68,5.89,7.96c5.87,7.67,8.91,11.41,9.7,12.41
		c0.13,0.18,0.21,0.29,0.21,0.29 M291.2,66.78c0.53-3.9,2.21-7.74,5.11-10.34c2.85-2.67,7.11-3.39,10.58-1.69
		c1.74,0.76,3.34,1.86,4.32,3.38c1,1.49,1.27,3.36,0.77,5.05h0c-0.15,0.52-0.35,1.03-0.62,1.52c-1.19,2.13-3.41,3.34-5.55,3.44
		c-2.15,0.18-4.03-0.64-5.36-1.65c-2.67-2.12-3.57-4.28-3.83-4.13c-0.18,0.04,0.25,2.45,3.01,5.12c1.37,1.28,3.63,2.46,6.26,2.34
		c2.59,0,5.56-1.51,7.05-4.23c0.34-0.62,0.6-1.28,0.78-1.95l0,0c0.56-2.18,0.09-4.61-1.22-6.4c-1.28-1.82-3.19-2.98-5.12-3.74
		c-1.93-0.76-4.15-1.1-6.23-0.66c-2.08,0.42-3.99,1.5-5.47,2.95 M310.2,43.41c3.06-1.39,6-3.22,8.35-5.75
		c0.35-0.37,0.69-0.77,1.01-1.17c-0.42-0.02-0.84-0.04-1.25-0.06C316.25,39.31,313.38,41.71,310.2,43.41z M324.42,32.42
		c-3.08,0.11-5.67,0.25-7.83,0.41c-0.02,0.71-0.15,1.68-0.58,2.7c1.95,0.14,4.25,0.28,6.97,0.39c0.62-0.91,1.44-2.23,2-3.51
		C324.8,32.41,324.61,32.41,324.42,32.42z M314.07,33.02c-6.41,0.56-7.98,1.17-7.99,1.17l0,0h0c0.01,0,1.52,0.59,7.59,1.14
		C313.9,34.78,314.13,33.98,314.07,33.02z M453.47,35.72c0,0,23.68-1.29,95.1-1.53h0.09h-0.04h-0.04
		c-71.42-0.24-95.1-1.53-95.1-1.53c-26.26,2.08-111.25-0.26-124.71-0.31c-0.3,0.89-0.91,2.41-1.95,3.67
		C341.05,36.22,425.95,33.55,453.47,35.72z"/>
</g>
</svg>
